<?xml version="1.0" standalone="no"?>
<!DOCTYPE svg PUBLIC "-//W3C//DTD SVG 20010904//EN"
 "http://www.w3.org/TR/2001/REC-SVG-20010904/DTD/svg10.dtd">
<svg version="1.0" xmlns="http://www.w3.org/2000/svg"
 width="700.000000pt" height="700.000000pt" viewBox="0 0 700.000000 700.000000"
 preserveAspectRatio="xMidYMid meet">
<metadata>
Created by potrace 1.14, written by Peter Selinger 2001-2017
</metadata>
<g transform="translate(0.000000,700.000000) scale(0.100000,-0.100000)"
fill="#000000" stroke="none">
<path d="M3248 6775 c-2 -2 -30 -6 -63 -9 -411 -39 -823 -161 -1195 -354 -179
-93 -389 -228 -510 -326 -25 -21 -65 -54 -90 -74 -82 -67 -201 -182 -305 -293
-293 -315 -547 -740 -687 -1149 -25 -74 -73 -236 -83 -280 -38 -167 -66 -330
-57 -331 4 -1 385 -2 846 -3 675 -1 842 2 853 12 7 7 17 30 23 51 6 22 20 61
32 87 12 27 23 51 23 54 2 10 59 117 93 175 230 388 669 685 1107 750 22 4 54
9 70 12 47 8 325 10 370 2 22 -4 58 -9 80 -12 22 -3 63 -11 90 -17 28 -7 60
-14 72 -16 51 -10 205 -69 296 -115 386 -192 664 -513 818 -944 l14 -39 840
-1 c462 0 846 1 852 3 15 5 12 24 -24 202 -114 559 -377 1085 -757 1514 -82
94 -218 229 -297 296 -35 30 -69 60 -75 65 -6 6 -26 21 -44 35 -18 14 -49 38
-69 54 -62 49 -232 161 -342 224 -367 212 -812 361 -1214 407 -27 3 -70 8 -95
12 -46 6 -566 13 -572 8z"/>
<path d="M234 3183 c3 -16 7 -55 11 -87 25 -255 118 -602 232 -871 96 -227
240 -481 371 -655 19 -25 43 -58 55 -74 146 -199 436 -481 672 -653 360 -263
851 -479 1270 -559 22 -4 47 -9 55 -10 32 -7 229 -35 305 -43 81 -9 569 -7
615 2 14 3 54 8 89 12 36 3 67 7 70 9 3 2 29 6 58 10 28 3 84 13 125 22 40 8
81 17 91 19 10 2 27 7 37 10 10 3 29 8 41 10 12 3 68 19 123 36 529 163 997
446 1375 831 115 116 163 171 259 292 17 22 36 46 41 52 5 6 44 63 86 125 41
63 80 119 85 126 6 7 10 15 10 18 0 3 11 22 24 43 22 36 155 287 156 297 0 3
10 26 21 52 83 194 173 480 203 648 3 17 8 39 10 50 2 11 7 40 11 65 4 25 9
52 10 60 2 8 6 42 9 75 4 33 9 72 12 88 l4 27 -843 0 -844 0 -22 -92 c-43
-178 -163 -442 -250 -550 -125 -156 -194 -230 -291 -310 -192 -159 -464 -288
-701 -333 -13 -3 -35 -7 -49 -10 -138 -30 -412 -25 -590 10 -469 93 -892 414
-1108 840 -67 133 -117 271 -142 391 l-11 54 -845 0 -844 0 4 -27z"/>
</g>
</svg>
