 <svg
    width="24px"
    height="24px"
    viewBox="2 2 20.5 20"
    fill="none"
    xmlns="http://www.w3.org/2000/svg"
  >
    <g id="saml_24px">
      <g id="icon">
        <path
          id="Path 1"
          fillRule="evenodd"
          clipRule="evenodd"
          d="M12.8385 8.93513C12.0412 8.67323 10.6421 8.21895 9.70853 7.4127C8.58145 6.43747 8.4437 4.86166 8.4437 4.59498C8.4437 3.55892 8.70963 2.72359 9.11484 2.04199H5.64817C4.18882 2.04199 3.00101 3.27221 3.00101 4.79109V19.2521C3.00101 20.7695 4.18882 21.9997 5.64817 21.9997H8.55027C8.90629 21.9997 9.93705 21.8896 10.7343 21.5598C11.8978 21.082 12.3294 20.0381 12.3847 19.6225C12.443 19.2042 12.5303 18.1937 10.7655 17.4503C9.61417 16.9641 6.55973 15.6641 6.55973 12.1828C6.55973 10.1077 7.50993 8.93796 8.62797 8.1262C9.0081 8.46275 9.34269 8.65052 9.84983 8.88671C10.2786 9.0869 10.6566 9.15605 11.0036 9.20251C11.3985 9.00232 11.8375 8.87979 12.3072 8.87979C12.4894 8.87979 12.664 8.90249 12.8385 8.93511"
          fill="#E2B800"
        />
        <path
          id="Path 2"
          fillRule="evenodd"
          clipRule="evenodd"
          d="M18.9523 2H16.0502C15.6915 2 14.6615 2.11277 13.8664 2.44116C12.7007 2.91974 12.2713 3.96218 12.2131 4.37923C12.1575 4.7961 12.0703 5.80876 13.8323 6.55136C14.9862 7.03614 18.0409 8.33835 18.0409 11.8196C18.0409 13.8947 17.0879 15.0633 15.9706 15.875C15.5924 15.5383 15.2579 15.3514 14.7508 15.1138C14.3221 14.9143 13.9439 14.845 13.5997 14.7999C14.6081 14.2971 15.3092 13.2367 15.3092 11.9962C15.3092 10.464 14.2424 9.19514 12.8384 8.93538C12.664 8.90275 12.4893 8.88006 12.3072 8.88006C11.8375 8.88006 11.3985 9.00258 11.0036 9.20278C10.0021 9.70778 9.30667 10.764 9.30667 11.9962C9.30667 13.5089 10.3443 14.7687 11.7212 15.0535C12.5088 15.3119 13.9419 15.7683 14.8893 16.5877C16.0192 17.5636 16.157 19.1394 16.157 19.4061C16.157 20.4423 15.8909 21.2777 15.4858 21.9584H18.9523C20.4139 21.9577 21.597 20.7269 21.597 19.21V4.75036C21.597 3.23288 20.4139 2 18.9523 2"
          fill="#57096F"
        />
      </g>
    </g>
  </svg>
