<svg id="Brand_name" data-name="Brand name" xmlns="http://www.w3.org/2000/svg" xmlns:xlink="http://www.w3.org/1999/xlink" width="200" height="40" viewBox="0 0 200 40">
  <defs>
    <linearGradient id="linear-gradient" x1="-0.245" y1="0.5" x2="3.584" y2="0.5" gradientUnits="objectBoundingBox">
      <stop offset="0" stop-color="#ff8f21"/>
      <stop offset="1" stop-color="#ff005a"/>
    </linearGradient>
    <linearGradient id="linear-gradient-2" x1="-0.25" x2="3.602" xlink:href="#linear-gradient"/>
    <linearGradient id="linear-gradient-3" x1="-1.464" x2="2.601" xlink:href="#linear-gradient"/>
    <linearGradient id="linear-gradient-4" x1="-2.47" x2="1.386" xlink:href="#linear-gradient"/>
  </defs>
  <rect id="Boundary" width="200" height="40" fill="none"/>
  <g id="logo-onewelcome" transform="translate(8.997 5)">
    <path id="Path_10" data-name="Path 10" d="M60.373,23.673H58L53.342,7.131H55.75l3.566,13.207L63.443,7.131h2.179l4.094,13.207,3.6-13.207h2.312L70.937,23.673H68.594L64.5,10.434Zm30.9-1.751a10.627,10.627,0,0,1-2.889,1.535,10.139,10.139,0,0,1-3.285.512,8.55,8.55,0,0,1-3.35-.661,8.241,8.241,0,0,1-2.707-1.817,8.823,8.823,0,0,1-.082-12.15,7.944,7.944,0,0,1,5.778-2.476,7.3,7.3,0,0,1,3.088.661A7.524,7.524,0,0,1,90.3,9.342a8.861,8.861,0,0,1,1.651,2.707,9.031,9.031,0,0,1,.61,3.335v.759H78.994A6.259,6.259,0,0,0,81.008,20.2,5.959,5.959,0,0,0,85.2,21.822a8.085,8.085,0,0,0,2.513-.4A5.732,5.732,0,0,0,89.756,20.3Zm-6.6-12.909a5.283,5.283,0,0,0-3.715,1.453,6.108,6.108,0,0,0-1.9,3.73H90.12a6.341,6.341,0,0,0-1.866-3.681,4.964,4.964,0,0,0-3.582-1.5ZM97.908,0V23.672H95.465V.561ZM109.3,21.757a6.337,6.337,0,0,0,2.542-.523,7.621,7.621,0,0,0,2.278-1.552l1.519,1.651a9.786,9.786,0,0,1-2.971,1.948,8.785,8.785,0,0,1-3.434.693,8.345,8.345,0,0,1-3.3-.661,8.093,8.093,0,0,1-2.674-1.815,8.8,8.8,0,0,1-2.444-6.108,8.539,8.539,0,0,1,.661-3.35,8.725,8.725,0,0,1,1.78-2.722,8.318,8.318,0,0,1,2.674-1.832,8.173,8.173,0,0,1,3.3-.676,9.146,9.146,0,0,1,3.483.693A9.527,9.527,0,0,1,115.7,9.418l-1.552,1.78a7.093,7.093,0,0,0-2.278-1.585,6.477,6.477,0,0,0-2.608-.561,5.822,5.822,0,0,0-2.377.5,5.883,5.883,0,0,0-1.932,1.354,6.327,6.327,0,0,0-1.271,2.014,6.883,6.883,0,0,0,.017,5,6.307,6.307,0,0,0,1.288,2.014,6.005,6.005,0,0,0,1.932,1.337,5.824,5.824,0,0,0,2.379.489Zm7.3-6.375a8.658,8.658,0,0,1,.661-3.367,8.53,8.53,0,0,1,1.8-2.74,8.415,8.415,0,0,1,11.951,0,8.537,8.537,0,0,1,1.8,2.74,9,9,0,0,1,0,6.768,8.531,8.531,0,0,1-1.8,2.74,8.328,8.328,0,0,1-2.674,1.817,8.229,8.229,0,0,1-3.284.661,8.4,8.4,0,0,1-5.993-2.476,8.525,8.525,0,0,1-1.8-2.74,8.742,8.742,0,0,1-.661-3.4Zm8.452,6.438a5.712,5.712,0,0,0,2.361-.5,5.818,5.818,0,0,0,1.915-1.37,6.492,6.492,0,0,0,1.271-2.047,7.131,7.131,0,0,0,0-5.052,6.306,6.306,0,0,0-1.271-2.03,5.942,5.942,0,0,0-1.915-1.354,5.866,5.866,0,0,0-6.636,1.354,6.515,6.515,0,0,0-1.288,2.03,6.615,6.615,0,0,0-.478,2.525,6.813,6.813,0,0,0,.462,2.525,6.473,6.473,0,0,0,1.271,2.047,5.758,5.758,0,0,0,1.932,1.37,5.824,5.824,0,0,0,2.377.5Zm11.324,1.852V7.13h2.443V8.945a6.167,6.167,0,0,1,2.146-1.6,6.571,6.571,0,0,1,2.708-.544,5.959,5.959,0,0,1,3.086.809,5.677,5.677,0,0,1,2.13,2.2,6.665,6.665,0,0,1,2.459-2.261,6.9,6.9,0,0,1,3.219-.743,5.777,5.777,0,0,1,4.374,1.78,6.422,6.422,0,0,1,1.7,4.622v10.47h-2.408V13.7a5,5,0,0,0-1.152-3.467,4,4,0,0,0-3.141-1.288,4.619,4.619,0,0,0-2.476.693,5.826,5.826,0,0,0-1.915,2.014q.066.363.115.742a6.253,6.253,0,0,1,.049.809v10.47h-2.408v-9.97a5,5,0,0,0-1.152-3.467,3.964,3.964,0,0,0-3.1-1.288,4.752,4.752,0,0,0-2.393.611,5.289,5.289,0,0,0-1.832,1.8V23.68Zm41.8-1.749a10.627,10.627,0,0,1-2.889,1.535,10.14,10.14,0,0,1-3.285.512,8.55,8.55,0,0,1-3.35-.661,8.238,8.238,0,0,1-2.707-1.817,8.823,8.823,0,0,1-.082-12.15,7.944,7.944,0,0,1,5.778-2.476,7.3,7.3,0,0,1,3.086.661A7.524,7.524,0,0,1,177.2,9.342a8.864,8.864,0,0,1,1.651,2.707,9.03,9.03,0,0,1,.61,3.335v.759h-13.57a6.26,6.26,0,0,0,2.014,4.061,5.959,5.959,0,0,0,4.188,1.618,8.086,8.086,0,0,0,2.513-.4,5.732,5.732,0,0,0,2.047-1.122Zm-6.6-12.909a5.283,5.283,0,0,0-3.715,1.453,6.109,6.109,0,0,0-1.9,3.73h11.056a6.343,6.343,0,0,0-1.866-3.681,4.964,4.964,0,0,0-3.579-1.5Z" transform="translate(2.506)" fill="#0f0f1e"/>
    <path id="Path_11" data-name="Path 11" d="M249.7,576.187a4.2,4.2,0,0,1-4.127-3.441h-4.4a8.56,8.56,0,0,0,17.054,0h-4.4a4.2,4.2,0,0,1-4.132,3.44Z" transform="translate(-241.172 -556.602)" fill="url(#linear-gradient)"/>
    <path id="Path_12" data-name="Path 12" d="M250.042,503.478a4.2,4.2,0,0,1,4.022,3h4.455a8.561,8.561,0,0,0-16.956,0h4.456A4.2,4.2,0,0,1,250.042,503.478Z" transform="translate(-241.514 -492.284)" fill="url(#linear-gradient-2)"/>
    <path id="Path_13" data-name="Path 13" d="M393.957,515.925v-16.5h5.054v1.123a6.92,6.92,0,0,1,2.043-1.061,7.592,7.592,0,0,1,2.386-.375,6.359,6.359,0,0,1,4.741,1.872,6.525,6.525,0,0,1,1.841,4.773v10.168h-5.053v-9.483a2.838,2.838,0,0,0-3-2.994,4.073,4.073,0,0,0-1.715.343,3.369,3.369,0,0,0-1.248.967v11.166Z" transform="translate(-374.625 -492.284)" fill="url(#linear-gradient-3)"/>
    <path id="Path_14" data-name="Path 14" d="M554.539,513.955a10.613,10.613,0,0,1-3.2,1.9,10.819,10.819,0,0,1-3.7.593,9.476,9.476,0,0,1-3.525-.655,8.5,8.5,0,0,1-4.757-4.539,8.144,8.144,0,0,1-.7-3.35,8.454,8.454,0,0,1,.671-3.35,8.55,8.55,0,0,1,1.825-2.729,8.346,8.346,0,0,1,2.729-1.809,8.719,8.719,0,0,1,3.385-.655,8.062,8.062,0,0,1,5.968,2.558,8.48,8.48,0,0,1,1.732,2.854,10.214,10.214,0,0,1,.628,3.6v1.248H543.84a4.352,4.352,0,0,0,1.56,1.885,4.276,4.276,0,0,0,2.495.733,5.134,5.134,0,0,0,1.872-.328,4.112,4.112,0,0,0,1.435-.92Zm-7.357-10.479a3.461,3.461,0,0,0-2.153.686,3.665,3.665,0,0,0-1.278,1.934h6.886a3.986,3.986,0,0,0-1.325-1.9,3.378,3.378,0,0,0-2.13-.717Z" transform="translate(-501.019 -492.499)" fill="url(#linear-gradient-4)"/>
  </g>
</svg>
